<svg width="58" height="14" viewBox="0 0 58 14" fill="none" xmlns="http://www.w3.org/2000/svg">
<g id="ediya">
<path id="Vector" d="M44.5377 13.6296L49.1048 0.344744H53.3251L57.8897 13.6296H53.7549L53.2723 11.8699H49.14L48.6348 13.6296H44.5377ZM49.8966 9.08124H52.5157L51.2187 4.48403L49.8966 9.08124Z" fill="#24388D"/>
<path id="Vector_2" d="M37.7008 13.6296V8.71079L32.92 0.344744H37.5425L39.7795 4.86992L42.0367 0.344744H46.5309L41.8658 8.71079V13.6296H37.7008Z" fill="#24388D"/>
<path id="Vector_3" d="M26.802 13.6296V0.344744H31.0525V13.6296H26.802Z" fill="#24388D"/>
<path id="Vector_4" d="M12.5778 13.6296V0.344744H17.62C18.8969 0.344744 19.8521 0.401341 20.4754 0.517107C21.1038 0.632873 21.6493 0.833535 22.1118 1.09851C23.0116 1.64133 23.6877 2.40281 24.1377 3.38039C24.5901 4.35797 24.8163 5.56452 24.8163 6.99487C24.8163 8.49984 24.5398 9.76555 23.9743 10.792C23.4188 11.8159 22.5843 12.5774 21.4959 13.0765C21.0737 13.2771 20.5433 13.4135 19.9049 13.4984C19.2664 13.5858 18.2459 13.627 16.8433 13.627H12.5778V13.6296ZM16.7453 10.2646H17.8739C18.9095 10.2646 19.6258 10.0279 20.0356 9.54945C20.4377 9.07609 20.6363 8.22457 20.6363 6.99487C20.6363 5.79605 20.4302 4.94967 20.0205 4.45059C19.6108 3.95151 18.912 3.70711 17.9267 3.70711H16.7478V10.2646H16.7453Z" fill="#24388D"/>
<path id="Vector_5" d="M0 13.6296V0.344744H10.3734V3.52703H4.1725V5.29182H9.41326V8.34805H4.1725V10.4035H10.6298V13.6296H0Z" fill="#24388D"/>
</g>
</svg>
